HIERARCHY
ROOT RootJoint
{
    OFFSET   0.000000   0.000000   0.000000
    CHANNELS 6 Xposition Yposition Zposition Xrotation Yrotation Zrotation
    JOINT pelvis_lowerback
    {
        OFFSET   0.000000   0.093605   0.000000
        CHANNELS 3 Xrotation Yrotation Zrotation
        JOINT lowerback_torso
        {
            OFFSET   0.000000   0.100000   0.000000
            CHANNELS 3 Xrotation Yrotation Zrotation
            JOINT torso_head
            {
                OFFSET   0.000000   0.282350   0.000000
                CHANNELS 3 Xrotation Yrotation Zrotation
                End Site
                {
                    OFFSET   0.000000   0.192650   0.000000
                }
            }
            JOINT rTorso_Clavicle
            {
                OFFSET  -0.001000   0.157500   0.000000
                CHANNELS 3 Xrotation Yrotation Zrotation
                JOINT rShoulder
                {
                    OFFSET  -0.117647   0.000000   0.000000
                    CHANNELS 3 Xrotation Yrotation Zrotation
                    JOINT rElbow
                    {
                        OFFSET  -0.245000   0.000000   0.000000
                        CHANNELS 3 Xrotation Yrotation Zrotation
                        JOINT rWrist
                        {
                            OFFSET  -0.240000   0.000000   0.000000
                            CHANNELS 3 Xrotation Yrotation Zrotation
                            End Site
                            {
                                OFFSET  -0.116353  -0.002500   0.000000
                            }
                        }
                    }
                }
            }
            JOINT lTorso_Clavicle
            {
                OFFSET   0.001000   0.157500   0.000000
                CHANNELS 3 Xrotation Yrotation Zrotation
                JOINT lShoulder
                {
                    OFFSET   0.117647   0.000000   0.000000
                    CHANNELS 3 Xrotation Yrotation Zrotation
                    JOINT lElbow
                    {
                        OFFSET   0.245000   0.000000   0.000000
                        CHANNELS 3 Xrotation Yrotation Zrotation
                        JOINT lWrist
                        {
                            OFFSET   0.240000   0.000000   0.000000
                            CHANNELS 3 Xrotation Yrotation Zrotation
                            End Site
                            {
                                OFFSET   0.116353  -0.002500   0.000000
                            }
                        }
                    }
                }
            }
        }
    }
    JOINT rHip
    {
        OFFSET  -0.100000  -0.051395   0.000000
        CHANNELS 3 Xrotation Yrotation Zrotation
        JOINT rKnee
        {
            OFFSET   0.000000  -0.410000   0.000000
            CHANNELS 3 Xrotation Yrotation Zrotation
            JOINT rAnkle
            {
                OFFSET   0.000000  -0.390000   0.000000
                CHANNELS 3 Xrotation Yrotation Zrotation
                JOINT rToeJoint
                {
                    OFFSET   0.000000  -0.050000   0.130000
                    CHANNELS 3 Xrotation Yrotation Zrotation
                    End Site
                    {
                        OFFSET  -0.010000   0.002000   0.060000
                    }
                }
            }
        }
    }
    JOINT lHip
    {
        OFFSET   0.100000  -0.051395   0.000000
        CHANNELS 3 Xrotation Yrotation Zrotation
        JOINT lKnee
        {
            OFFSET   0.000000  -0.410000   0.000000
            CHANNELS 3 Xrotation Yrotation Zrotation
            JOINT lAnkle
            {
                OFFSET   0.000000  -0.390000   0.000000
                CHANNELS 3 Xrotation Yrotation Zrotation
                JOINT lToeJoint
                {
                    OFFSET   0.000000  -0.050000   0.130000
                    CHANNELS 3 Xrotation Yrotation Zrotation
                    End Site
                    {
                        OFFSET   0.010000   0.002000   0.060000
                    }
                }
            }
        }
    }
}
MOTION
Frames: 11
Frame Time:   0.008333
 -2.369110   0.874970   5.603210 -12.382478  -4.221332   1.772259  12.366005   2.249215  -5.272452   5.258946   0.120996  -2.163396   1.965957  -3.416480   2.708599  -0.845903   2.838549   8.216330  -1.946940   7.120946  43.495129  -0.003002  26.285255  -0.006539   3.107087   3.798773  -1.992480   3.941713   3.656941  -9.047544   7.412721  -0.479466 -48.130075  -0.000139 -12.275704   0.000140   1.983501  -1.432576  -0.035734  12.712163  -6.722681  -7.501992  61.588401  -0.025616  -0.034214   9.532516  -3.393063   4.940501 -18.892509   0.010032  -0.088812 -13.350486   1.005135  -0.891637  31.285253   0.001525  -0.003220  -6.637207  10.708940   6.340694  -0.731277  -0.003260  -0.002465
 -2.368752   0.877662   5.615670 -12.579517  -4.281485   1.808130  12.383377   2.076671  -5.243307   5.189073   0.130683  -2.147614   1.978238  -3.463854   2.659201  -0.721502   2.728570   8.272143  -1.608762   6.974071  43.729948  -0.004088  25.693280  -0.006371   3.145392   3.842750  -1.871251   3.981725   3.641611  -9.052992   7.347333  -0.478344 -48.122880  -0.000332 -12.443451   0.000157   1.974579  -1.337461  -0.003958  11.459635  -6.948726  -7.770915  63.673075  -0.028762  -0.030861   9.064466  -4.257886   4.780954 -17.117262   0.006968  -0.088115 -12.012491   1.066063  -1.054184  30.859612   0.000884  -0.002415  -7.019047  10.523680   6.543498  -0.483961  -0.002965  -0.002507
 -2.368522   0.880615   5.627854 -12.753476  -4.380976   1.791128  12.412796   1.901050  -5.171928   5.134997   0.133178  -2.115028   1.994873  -3.504939   2.610696  -0.588639   2.619428   8.311109  -1.277415   6.829266  43.953699  -0.004873  25.130127  -0.006221   3.185213   3.825893  -1.689382   4.001136   3.616728  -9.059502   7.269634  -0.494309 -48.130393  -0.000495 -12.616852   0.000287   1.967535  -1.345784   0.007947  10.095379  -7.164967  -7.975882  65.483770  -0.031309  -0.027320   8.597254  -5.067068   4.621016 -15.620580   0.002637  -0.083811 -10.614065   1.108318  -1.158649  30.257753   0.000335  -0.001530  -7.456930  10.348094   6.739618  -0.268997  -0.002651  -0.002489
 -2.368416   0.883667   5.639780 -12.909513  -4.433961   1.764505  12.455498   1.687863  -5.090881   5.095316   0.096734  -2.066923   2.013472  -3.544008   2.568093  -0.451708   2.501279   8.340083  -0.956846   6.684105  44.161906  -0.005343  24.599494  -0.006076   3.222383   3.777045  -1.497403   4.003873   3.577318  -9.054417   7.184420  -0.520871 -48.135135  -0.000643 -12.786382   0.000471   1.961172  -1.404156   0.013563   8.668041  -7.382528  -8.133338  67.103075  -0.032299  -0.023259   8.154241  -5.819502   4.464807 -14.261793  -0.001303  -0.077568  -9.194854   1.166934  -1.230861  29.564131  -0.000199  -0.001219  -8.088159  10.229560   6.932459  -0.065450  -0.002312  -0.002164
 -2.368398   0.886594   5.651562 -13.058742  -4.447530   1.718939  12.502175   1.453328  -4.987107   5.069312   0.029913  -2.004446   2.034558  -3.580933   2.529657  -0.310457   2.371017   8.348866  -0.645679   6.536496  44.348737  -0.005499  24.099351  -0.005956   3.257237   3.703990  -1.310388   3.998863   3.532302  -9.034517   7.098557  -0.551486 -48.135890  -0.000787 -12.949222   0.000648   1.955764  -1.488781   0.018741   7.223620  -7.588211  -8.251308  68.575768  -0.031990  -0.019236   7.735910  -6.519632   4.312909 -13.025034  -0.004404  -0.070417  -7.776686   1.213678  -1.272904  28.815613  -0.000656  -0.001219  -8.662787  10.111992   7.114471   0.099786  -0.002001  -0.001818
 -2.368456   0.889292   5.663256 -13.205801  -4.415428   1.666753  12.550159   1.201024  -4.872425   5.054027  -0.062810  -1.931039   2.056710  -3.615931   2.495749  -0.165792   2.229900   8.342053  -0.343806   6.386272  44.514835  -0.005431  23.627230  -0.005829   3.289836   3.606961  -1.138756   3.989029   3.484226  -8.999872   7.014200  -0.583375 -48.128408  -0.000921 -13.103859   0.000786   1.951215  -1.585485   0.033327   5.792749  -7.780371  -8.349419  69.924486  -0.030578  -0.015480   7.341841  -7.171447   4.165968 -11.897619  -0.006508  -0.062970  -6.379185   1.255654  -1.293864  28.068171  -0.001025  -0.001529  -9.213248  10.006686   7.286940   0.250660  -0.001736  -0.001457
 -2.368574   0.891717   5.674885 -13.350985  -4.347903   1.615752  12.597455   0.940664  -4.754143   5.046210  -0.173192  -1.852196   2.078845  -3.648927   2.465409  -0.019926   2.081901   8.324656  -0.052326   6.235371  44.662833  -0.005224  23.181684  -0.005670   3.320478   3.488455  -0.984472   3.976099   3.434951  -8.954102   6.932423  -0.615179 -48.112822  -0.001035 -13.249805   0.000877   1.947348  -1.686896   0.061395   4.390361  -7.952158  -8.444069  71.164282  -0.028401  -0.012163   6.971096  -7.778662   4.024218 -10.868970  -0.007728  -0.055690  -5.011402   1.279853  -1.307270  27.347247  -0.001277  -0.001890  -9.756947   9.890826   7.446762   0.389616  -0.001508  -0.001158
 -2.368981   0.894555   5.686482 -13.514755  -4.139069   1.427233  12.720875   0.681106  -4.501042   4.994524  -0.266811  -1.715294   2.111544  -3.620669   2.431494   0.141097   1.837761   8.341022   0.300620   6.071162  44.775190  -0.005719  22.566650  -0.005531   3.357985   3.543424  -0.903031   3.964263   3.373761  -8.935773   6.817376  -0.738505 -48.104560  -0.001329 -13.526249   0.001055   1.996715  -1.713086   0.127759   3.224365  -8.160903  -8.258923  71.380837  -0.023264  -0.009365   5.734542  -8.402937   3.841257 -10.031048  -0.009467  -0.047286  -3.536522   1.317528  -1.103316  26.404635  -0.001530  -0.003944 -10.117437   9.592854   7.321155   0.724546  -0.000804  -0.000922
 -2.369439   0.897308   5.697880 -13.634529  -3.907244   1.225743  12.839849   0.431406  -4.229038   4.937856  -0.371063  -1.562348   2.139056  -3.587949   2.401332   0.319585   1.582079   8.340015   0.654900   5.894816  44.878612  -0.006087  21.976826  -0.005222   3.393243   3.518777  -0.808776   3.934652   3.305483  -8.908641   6.693313  -0.869602 -48.106821  -0.001576 -13.800114   0.001180   2.044061  -1.827056   0.176400   1.996675  -8.346390  -8.052383  71.318368  -0.018511  -0.007536   4.552492  -8.980275   3.654808  -9.338209  -0.010432  -0.039590  -2.093835   1.343403  -0.872063  25.386967  -0.001641  -0.005834 -10.414108   9.290914   7.197703   1.040389  -0.000306  -0.000738
 -2.369934   0.899811   5.709126 -13.745082  -3.654333   1.029263  12.969856   0.176019  -3.956473   4.894482  -0.490570  -1.404074   2.165456  -3.556442   2.375277   0.499263   1.327995   8.325778   0.997258   5.718769  44.970878  -0.006246  21.420212  -0.004852   3.426575   3.452562  -0.711616   3.897319   3.232723  -8.870151   6.569341  -0.999095 -48.106346  -0.001783 -14.061653   0.001297   2.088987  -1.978661   0.221697   0.734611  -8.511382  -7.863396  71.161750  -0.014584  -0.006237   3.440657  -9.515208   3.469478  -8.712778  -0.010858  -0.032983  -0.683693   1.352807  -0.637179  24.376672  -0.001607  -0.007293 -10.696003   8.994324   7.085201   1.013612  -0.000268  -0.000590
 -2.370471   0.902012   5.720267 -13.858320  -3.378911   0.845080  13.109398  -0.085076  -3.691330   4.868613  -0.623181  -1.245185   2.192714  -3.527070   2.352432   0.676543   1.078364   8.304866   1.325321   5.545702  45.053469  -0.006240  20.896318  -0.004455   3.458190   3.362451  -0.619645   3.856664   3.158289  -8.821790   6.448858  -1.123713 -48.099080  -0.001943 -14.308500   0.001383   2.132495  -2.141981   0.274258  -0.532721  -8.656447  -7.701580  70.968331  -0.011467  -0.005273   2.397530 -10.011410   3.287004  -8.144889  -0.010824  -0.027364   0.692541   1.346179  -0.404703  23.410156  -0.001467  -0.008329 -10.985728   8.701068   6.979764   0.991408  -0.000231  -0.000472
